<svg
    width="20"
    height="20"
    viewBox="0 0 20 20"
    fill="currentColor"
    xmlns="http://www.w3.org/2000/svg"
>
    <path
        fill-rule="evenodd"
        clip-rule="evenodd"
        d="M2.166 4.99885C5.06114 4.96285 7.84481 3.87731 10 1.94385C12.155 3.87767 14.9387 4.96357 17.834 4.99985C17.944 5.64985 18 6.31985 18 7.00085C18 12.2258 14.66 16.6708 10 18.3178C5.34 16.6698 2 12.2248 2 6.99985C2 6.31785 2.057 5.64985 2.166 4.99885ZM13.707 8.70685C13.8892 8.51825 13.99 8.26564 13.9877 8.00345C13.9854 7.74125 13.8802 7.49044 13.6948 7.30503C13.5094 7.11962 13.2586 7.01445 12.9964 7.01217C12.7342 7.0099 12.4816 7.11069 12.293 7.29285L9 10.5858L7.707 9.29285C7.5184 9.11069 7.2658 9.0099 7.0036 9.01217C6.7414 9.01445 6.49059 9.11962 6.30518 9.30503C6.11977 9.49044 6.0146 9.74125 6.01233 10.0034C6.01005 10.2656 6.11084 10.5182 6.293 10.7068L8.293 12.7068C8.48053 12.8943 8.73484 12.9996 9 12.9996C9.26516 12.9996 9.51947 12.8943 9.707 12.7068L13.707 8.70685Z"
        fill="currentColor"
    />
</svg>
