<svg
    width="26"
    height="16"
    viewBox="0 0 26 16"
    fill="currentColor"
    xmlns="http://www.w3.org/2000/svg"
>
    <path
        fill-rule="evenodd"
        clip-rule="evenodd"
        d="M23.6957 3.70495C23.8269 3.83622 23.9006 4.01424 23.9006 4.19985C23.9006 4.38547 23.8269 4.56348 23.6957 4.69475L18.0957 10.2948C17.9644 10.426 17.7864 10.4997 17.6008 10.4997C17.4152 10.4997 17.2371 10.426 17.1059 10.2948L14.3059 7.49475C14.1784 7.36273 14.1078 7.18591 14.1094 7.00237C14.111 6.81883 14.1846 6.64326 14.3144 6.51348C14.4442 6.38369 14.6198 6.31007 14.8033 6.30848C14.9868 6.30688 15.1637 6.37744 15.2957 6.50495L17.6008 8.81005L22.7059 3.70495C22.8371 3.57372 23.0152 3.5 23.2008 3.5C23.3864 3.5 23.5644 3.57372 23.6957 3.70495Z"
        fill="currentColor"
    />
    <g clip-path="url(#clip0_960_53528)">
        <path
            d="M6.27222 3.95576C7.35327 3.70381 8.26733 3.84736 8.74487 3.96162L8.17358 4.52998L11.3904 7.74092C12.7556 6.22627 11.988 4.65595 11.7771 4.30439L10.4968 2.154C10.3708 1.94306 10.2068 1.76435 10.0046 1.62666C8.81519 0.820993 6.27515 0.759469 4.98608 1.62959C4.78394 1.76728 4.61987 1.94599 4.4939 2.15693L3.21655 4.29853C3.17261 4.37177 2.12964 6.11787 3.55347 7.69111L7.51147 11.8132L10.825 8.49971L6.27222 3.95576ZM4.86011 10.4831L1.39136 13.946C1.30054 14.0368 1.30054 14.1862 1.39136 14.2771L1.72241 14.6081C1.81323 14.6989 1.96265 14.6989 2.05347 14.6081L5.52222 11.1452L4.86011 10.4831ZM3.53296 9.16182L0.064209 12.6218C-0.0266113 12.7126 -0.0266113 12.862 0.064209 12.9528L0.395264 13.2839C0.486084 13.3747 0.635498 13.3747 0.726318 13.2839L4.19507 9.821L3.53296 9.16182ZM2.71851 15.2702C2.62769 15.361 2.62769 15.5104 2.71851 15.6013L3.04956 15.9323C3.14038 16.0231 3.28979 16.0231 3.38062 15.9323L6.84936 12.4694L6.18726 11.8073L2.71851 15.2702ZM8.83862 11.8073L8.17651 12.4694L11.616 15.903C11.7068 15.9938 11.8562 15.9938 11.947 15.903L12.2781 15.572C12.3689 15.4812 12.3689 15.3317 12.2781 15.2409L8.83862 11.8073ZM14.9294 12.5925L11.49 9.16182L10.8279 9.82393L14.2644 13.2546C14.3552 13.3454 14.5046 13.3454 14.5955 13.2546L14.9265 12.9235C15.0203 12.8327 15.0203 12.6862 14.9294 12.5925ZM10.1628 10.4831L9.50073 11.1452L12.9402 14.5788C13.031 14.6696 13.1804 14.6696 13.2712 14.5788L13.6023 14.2478C13.6931 14.1569 13.6931 14.0075 13.6023 13.9167L10.1628 10.4831Z"
            fill="currentColor"
        />
    </g>
    <defs>
        <clipPath id="clip0_960_53528">
            <rect
                width="15"
                height="15"
                fill="currentColor"
                transform="translate(0 1)"
            />
        </clipPath>
    </defs>
</svg>
