<svg
    width="29"
    height="29"
    viewBox="0 0 29 29"
    fill="currentColor"
    xmlns="http://www.w3.org/2000/svg"
>
    <g clip-path="url(#clip0_960_53526)">
        <path
            fill-rule="evenodd"
            clip-rule="evenodd"
            d="M8.48377 19.7992C9.98406 21.2995 12.0189 22.1423 14.1406 22.1423C16.2624 22.1423 18.2972 21.2995 19.7975 19.7992C21.2978 18.2989 22.1406 16.2641 22.1406 14.1423C22.1406 12.0206 21.2978 9.98576 19.7975 8.48547C18.2972 6.98518 16.2624 6.14232 14.1406 6.14232C12.0189 6.14232 9.98406 6.98518 8.48377 8.48547C6.98348 9.98576 6.14062 12.0206 6.14062 14.1423C6.14062 16.2641 6.98348 18.2989 8.48377 19.7992ZM16.9691 12.7281C17.1566 12.5406 17.2619 12.2862 17.2619 12.021C17.2619 11.7558 17.1566 11.5014 16.9691 11.3139C16.7815 11.1264 16.5272 11.021 16.2619 11.021C15.9967 11.021 15.7424 11.1264 15.5548 11.3139L14.1406 12.7281L12.7264 11.3139C12.5389 11.1264 12.2845 11.021 12.0193 11.021C11.7541 11.021 11.4997 11.1264 11.3122 11.3139C11.1247 11.5014 11.0193 11.7558 11.0193 12.021C11.0193 12.2862 11.1247 12.5406 11.3122 12.7281L12.7264 14.1423L11.3122 15.5565C11.1247 15.7441 11.0193 15.9984 11.0193 16.2636C11.0193 16.5289 11.1247 16.7832 11.3122 16.9707C11.4997 17.1583 11.7541 17.2636 12.0193 17.2636C12.2845 17.2636 12.5389 17.1583 12.7264 16.9707L14.1406 15.5565L15.5548 16.9707C15.7424 17.1583 15.9967 17.2636 16.2619 17.2636C16.5272 17.2636 16.7815 17.1583 16.9691 16.9707C17.1566 16.7832 17.2619 16.5289 17.2619 16.2636C17.2619 15.9984 17.1566 15.7441 16.9691 15.5565L15.5548 14.1423L16.9691 12.7281Z"
            fill="currentColor"
        />
    </g>
    <defs>
        <clipPath id="clip0_960_53526">
            <rect
                width="20"
                height="20" 
                fill="currentColor"
                transform="translate(14.1406) rotate(45)"
            />
        </clipPath>
    </defs>
</svg>
