<svg 
    width="42"
    height="31"
    viewBox="0 0 42 31"
    fill="currentColor" 
    xmlns="http://www.w3.org/2000/svg"
>
    <g clip-path="url(#clip0_956_51366)">
        <path 
            d="M35.2436 13.7199C35.5049 13.0721 35.6515 12.3637 35.6515 11.625C35.6515 8.41602 32.911 5.8125 29.5331 5.8125C28.2775 5.8125 27.1049 6.17578 26.1361 6.79336C24.3707 3.88711 21.0757 1.9375 17.2963 1.9375C11.6622 1.9375 7.09889 6.27266 7.09889 11.625C7.09889 11.7885 7.10526 11.952 7.11164 12.1154C3.54256 13.3082 0.980469 16.5414 0.980469 20.3438C0.980469 25.1572 5.09128 29.0625 10.1581 29.0625H33.612C38.118 29.0625 41.7699 25.5932 41.7699 21.3125C41.7699 17.5646 38.9657 14.4344 35.2436 13.7199Z"
            fill="currentColor"
        />
    </g>
    <defs>
        <clipPath id="clip0_956_51366">
            <rect width="40.7895" height="31" fill="currentColor" transform="translate(0.980469)"/>
        </clipPath>
    </defs>
</svg>
