<svg
    width="10"
    height="9"
    viewBox="0 0 10 9"
    fill="currentColor"
    xmlns="http://www.w3.org/2000/svg"
>
    <path
        fill-rule="evenodd"
        clip-rule="evenodd"
        d="M1.84844 1.3501C1.72909 1.3501 1.61463 1.39751 1.53024 1.4819C1.44585 1.56629 1.39844 1.68075 1.39844 1.8001V7.2001C1.39844 7.31945 1.44585 7.43391 1.53024 7.5183C1.61463 7.60269 1.72909 7.6501 1.84844 7.6501C1.96778 7.6501 2.08224 7.60269 2.16664 7.5183C2.25103 7.43391 2.29844 7.31945 2.29844 7.2001V1.8001C2.29844 1.68075 2.25103 1.56629 2.16664 1.4819C2.08224 1.39751 1.96778 1.3501 1.84844 1.3501ZM6.48029 5.53195C6.39832 5.61682 6.35296 5.73049 6.35398 5.84848C6.35501 5.96647 6.40234 6.07933 6.48577 6.16277C6.5692 6.2462 6.68207 6.29353 6.80006 6.29455C6.91805 6.29558 7.03172 6.25022 7.11659 6.16825L8.46659 4.81825C8.55095 4.73386 8.59834 4.61942 8.59834 4.5001C8.59834 4.38077 8.55095 4.26634 8.46659 4.18195L7.11659 2.83195C7.07508 2.78897 7.02542 2.75469 6.97052 2.7311C6.91562 2.70752 6.85657 2.6951 6.79682 2.69458C6.73707 2.69407 6.67781 2.70545 6.62251 2.72808C6.5672 2.7507 6.51696 2.78412 6.47471 2.82637C6.43246 2.86862 6.39904 2.91887 6.37642 2.97417C6.35379 3.02947 6.34241 3.08873 6.34292 3.14848C6.34344 3.20823 6.35586 3.26728 6.37944 3.32218C6.40303 3.37708 6.43731 3.42674 6.48029 3.46825L7.06214 4.0501H3.64844C3.52909 4.0501 3.41463 4.09751 3.33024 4.1819C3.24585 4.26629 3.19844 4.38075 3.19844 4.5001C3.19844 4.61945 3.24585 4.7339 3.33024 4.8183C3.41463 4.90269 3.52909 4.9501 3.64844 4.9501H7.06214L6.48029 5.53195Z"
        fill="currentColor"
    />
</svg>
