<svg
    width="44"
    height="43"
    viewBox="0 0 44 43" 
    fill="currentColor"
    xmlns="http://www.w3.org/2000/svg"
>
    <path
        d="M37.744 30.2286C34.8521 23.9179 27.2571 18.4331 21.8011 20.1968C16.3451 21.9604 13.4024 30.8574 14.7509 37.6642C16.6507 47.2487 23.6545 39.9892 27.7719 38.6606C31.8894 37.332 41.8172 39.1112 37.744 30.2286Z" 
        fill="currentColor"
    />
    <path
        d="M14.8641 19.364C17.898 17.9428 18.9565 13.8003 17.2285 10.1115C15.5005 6.42261 11.6403 4.58425 8.60652 6.0054C5.5727 7.42654 4.5141 11.569 6.24209 15.2579C7.97008 18.9468 11.8303 20.7851 14.8641 19.364Z" 
        fill="currentColor"
    />
    <path 
        d="M10.8149 31.2809C13.1754 29.2384 13.2093 25.4104 10.8907 22.7309C8.57212 20.0514 4.77899 19.535 2.41853 21.5775C0.0580606 23.6201 0.0241323 27.448 2.34274 30.1276C4.66135 32.8071 8.45448 33.3234 10.8149 31.2809Z" 
        fill="currentColor"
    />
    <path 
        d="M26.9431 15.4873C30.2346 14.863 32.2875 11.1124 31.5284 7.11026C30.7693 3.10807 27.4856 0.369771 24.1942 0.994087C20.9027 1.6184 18.8498 5.36892 19.6089 9.37111C20.368 13.3733 23.6517 16.1116 26.9431 15.4873Z" 
        fill="currentColor"
    />
    <path 
        d="M43.3971 16.8597C43.7078 13.3299 41.4389 10.2466 38.3295 9.97295C35.22 9.69926 32.4474 12.3388 32.1367 15.8686C31.8261 19.3983 34.0949 22.4816 37.2044 22.7553C40.3139 23.029 43.0865 20.3894 43.3971 16.8597Z" 
        fill="currentColor"
    />
</svg>
